<mxfile host="Electron" modified="2023-04-30T06:09:02.586Z" agent="Mozilla/5.0 (X11; Linux x86_64) AppleWebKit/537.36 (KHTML, like Gecko) draw.io/21.1.2 Chrome/106.0.5249.199 Electron/21.4.3 Safari/537.36" etag="FqV0OYGsdZnIXUODGbxI" version="21.1.2" type="device">
  <diagram id="R2lEEEUBdFMjLlhIrx00" name="Page-1">
    <mxGraphModel dx="3414" dy="1017" grid="1" gridSize="10" guides="1" tooltips="1" connect="1" arrows="1" fold="1" page="1" pageScale="1" pageWidth="850" pageHeight="1100" math="0" shadow="0" extFonts="Permanent Marker^https://fonts.googleapis.com/css?family=Permanent+Marker">
      <root>
        <mxCell id="0" />
        <mxCell id="1" parent="0" />
        <mxCell id="RXSMDrH9linVr9BkSCTJ-110" value="" style="rounded=0;whiteSpace=wrap;html=1;strokeWidth=3;fillColor=#f9f7ed;strokeColor=#36393d;" parent="1" vertex="1">
          <mxGeometry x="-850" y="310" width="1660" height="1380" as="geometry" />
        </mxCell>
        <mxCell id="RXSMDrH9linVr9BkSCTJ-1" value="&lt;b&gt;&lt;font style=&quot;font-size: 22px;&quot;&gt;Venue&lt;/font&gt;&lt;/b&gt;" style="rounded=0;whiteSpace=wrap;html=1;strokeWidth=2;" parent="1" vertex="1">
          <mxGeometry x="-20" y="1460" width="120" height="60" as="geometry" />
        </mxCell>
        <mxCell id="RXSMDrH9linVr9BkSCTJ-2" value="&lt;b&gt;&lt;font style=&quot;font-size: 22px;&quot;&gt;Beacon&lt;/font&gt;&lt;/b&gt;" style="rounded=0;whiteSpace=wrap;html=1;strokeWidth=2;" parent="1" vertex="1">
          <mxGeometry x="-450" y="1460" width="120" height="60" as="geometry" />
        </mxCell>
        <mxCell id="RXSMDrH9linVr9BkSCTJ-3" value="&lt;b&gt;&lt;font style=&quot;font-size: 22px;&quot;&gt;Attendance&lt;/font&gt;&lt;/b&gt;" style="rounded=0;whiteSpace=wrap;html=1;strokeWidth=2;" parent="1" vertex="1">
          <mxGeometry x="-700" y="1040" width="140" height="60" as="geometry" />
        </mxCell>
        <mxCell id="RXSMDrH9linVr9BkSCTJ-4" value="&lt;b&gt;&lt;font style=&quot;font-size: 22px;&quot;&gt;Timetable&lt;/font&gt;&lt;/b&gt;" style="rounded=0;whiteSpace=wrap;html=1;strokeWidth=2;" parent="1" vertex="1">
          <mxGeometry y="1190" width="120" height="60" as="geometry" />
        </mxCell>
        <mxCell id="RXSMDrH9linVr9BkSCTJ-5" value="&lt;b&gt;&lt;font style=&quot;font-size: 22px;&quot;&gt;Department&lt;/font&gt;&lt;/b&gt;" style="rounded=0;whiteSpace=wrap;html=1;strokeWidth=2;" parent="1" vertex="1">
          <mxGeometry x="590" y="460" width="140" height="60" as="geometry" />
        </mxCell>
        <mxCell id="RXSMDrH9linVr9BkSCTJ-6" value="&lt;b&gt;&lt;font style=&quot;font-size: 22px;&quot;&gt;Student&lt;/font&gt;&lt;/b&gt;" style="rounded=0;whiteSpace=wrap;html=1;strokeWidth=2;" parent="1" vertex="1">
          <mxGeometry x="-690" y="460" width="120" height="60" as="geometry" />
        </mxCell>
        <mxCell id="RXSMDrH9linVr9BkSCTJ-7" value="&lt;b&gt;&lt;font style=&quot;font-size: 22px;&quot;&gt;Lecturer&lt;/font&gt;&lt;/b&gt;" style="rounded=0;whiteSpace=wrap;html=1;strokeWidth=2;" parent="1" vertex="1">
          <mxGeometry x="590" y="850" width="120" height="60" as="geometry" />
        </mxCell>
        <mxCell id="RXSMDrH9linVr9BkSCTJ-8" value="&lt;b&gt;&lt;font style=&quot;font-size: 22px;&quot;&gt;Module&lt;/font&gt;&lt;/b&gt;" style="rounded=0;whiteSpace=wrap;html=1;strokeWidth=2;" parent="1" vertex="1">
          <mxGeometry x="-10" y="850" width="120" height="60" as="geometry" />
        </mxCell>
        <mxCell id="RXSMDrH9linVr9BkSCTJ-9" value="&lt;b&gt;&lt;font style=&quot;font-size: 22px;&quot;&gt;Enrollment&lt;/font&gt;&lt;/b&gt;" style="rounded=0;whiteSpace=wrap;html=1;strokeWidth=2;" parent="1" vertex="1">
          <mxGeometry x="-500" y="850" width="120" height="60" as="geometry" />
        </mxCell>
        <mxCell id="RXSMDrH9linVr9BkSCTJ-10" value="&lt;b&gt;&lt;font style=&quot;font-size: 22px;&quot;&gt;Program&lt;/font&gt;&lt;/b&gt;" style="rounded=0;whiteSpace=wrap;html=1;strokeWidth=2;" parent="1" vertex="1">
          <mxGeometry x="-10" y="460" width="120" height="60" as="geometry" />
        </mxCell>
        <mxCell id="RXSMDrH9linVr9BkSCTJ-12" value="&lt;b&gt;&lt;font style=&quot;font-size: 18px;&quot;&gt;Has&lt;/font&gt;&lt;/b&gt;" style="shape=rhombus;perimeter=rhombusPerimeter;whiteSpace=wrap;html=1;align=center;strokeWidth=2;" parent="1" vertex="1">
          <mxGeometry x="-230" y="1460" width="120" height="60" as="geometry" />
        </mxCell>
        <mxCell id="RXSMDrH9linVr9BkSCTJ-13" value="&lt;b&gt;&lt;font style=&quot;font-size: 22px;&quot;&gt;Have&lt;/font&gt;&lt;/b&gt;" style="shape=rhombus;perimeter=rhombusPerimeter;whiteSpace=wrap;html=1;align=center;strokeWidth=2;" parent="1" vertex="1">
          <mxGeometry x="590" y="650" width="120" height="60" as="geometry" />
        </mxCell>
        <mxCell id="RXSMDrH9linVr9BkSCTJ-14" value="&lt;b&gt;&lt;font style=&quot;font-size: 18px;&quot;&gt;Belongs&lt;/font&gt;&lt;/b&gt;" style="shape=rhombus;perimeter=rhombusPerimeter;whiteSpace=wrap;html=1;align=center;strokeWidth=2;" parent="1" vertex="1">
          <mxGeometry x="-350" y="460" width="120" height="60" as="geometry" />
        </mxCell>
        <mxCell id="RXSMDrH9linVr9BkSCTJ-15" value="&lt;b&gt;&lt;font style=&quot;font-size: 18px;&quot;&gt;Have&lt;/font&gt;&lt;/b&gt;" style="shape=rhombus;perimeter=rhombusPerimeter;whiteSpace=wrap;html=1;align=center;strokeWidth=2;" parent="1" vertex="1">
          <mxGeometry x="330" y="460" width="120" height="60" as="geometry" />
        </mxCell>
        <mxCell id="RXSMDrH9linVr9BkSCTJ-16" value="&lt;b&gt;&lt;font style=&quot;font-size: 18px;&quot;&gt;Teaches&lt;/font&gt;&lt;/b&gt;" style="shape=rhombus;perimeter=rhombusPerimeter;whiteSpace=wrap;html=1;align=center;strokeWidth=2;" parent="1" vertex="1">
          <mxGeometry x="330" y="850" width="120" height="60" as="geometry" />
        </mxCell>
        <mxCell id="RXSMDrH9linVr9BkSCTJ-18" value="&lt;b&gt;&lt;font style=&quot;font-size: 18px;&quot;&gt;Has&lt;/font&gt;&lt;/b&gt;" style="shape=rhombus;perimeter=rhombusPerimeter;whiteSpace=wrap;html=1;align=center;strokeWidth=2;" parent="1" vertex="1">
          <mxGeometry x="-260" y="850" width="120" height="60" as="geometry" />
        </mxCell>
        <mxCell id="RXSMDrH9linVr9BkSCTJ-19" value="&lt;b&gt;&lt;font style=&quot;font-size: 18px;&quot;&gt;Enrolled&lt;/font&gt;&lt;/b&gt;" style="shape=rhombus;perimeter=rhombusPerimeter;whiteSpace=wrap;html=1;align=center;strokeWidth=2;" parent="1" vertex="1">
          <mxGeometry x="-500" y="650" width="120" height="60" as="geometry" />
        </mxCell>
        <mxCell id="RXSMDrH9linVr9BkSCTJ-20" value="&lt;b&gt;&lt;font style=&quot;font-size: 18px;&quot;&gt;Has&lt;/font&gt;&lt;/b&gt;" style="shape=rhombus;perimeter=rhombusPerimeter;whiteSpace=wrap;html=1;align=center;strokeWidth=2;" parent="1" vertex="1">
          <mxGeometry x="-10" y="660" width="120" height="60" as="geometry" />
        </mxCell>
        <mxCell id="RXSMDrH9linVr9BkSCTJ-21" value="&lt;span style=&quot;font-size: 18px;&quot;&gt;&lt;b&gt;Has&lt;/b&gt;&lt;/span&gt;" style="shape=rhombus;perimeter=rhombusPerimeter;whiteSpace=wrap;html=1;align=center;strokeWidth=2;" parent="1" vertex="1">
          <mxGeometry x="-30" y="1050" width="140" height="60" as="geometry" />
        </mxCell>
        <mxCell id="RXSMDrH9linVr9BkSCTJ-22" value="&lt;b&gt;&lt;font style=&quot;font-size: 18px;&quot;&gt;Has&lt;/font&gt;&lt;/b&gt;" style="shape=rhombus;perimeter=rhombusPerimeter;whiteSpace=wrap;html=1;align=center;strokeWidth=2;" parent="1" vertex="1">
          <mxGeometry x="-690" y="700" width="120" height="60" as="geometry" />
        </mxCell>
        <mxCell id="RXSMDrH9linVr9BkSCTJ-23" value="&lt;b&gt;&lt;font style=&quot;font-size: 18px;&quot;&gt;Has&lt;/font&gt;&lt;/b&gt;" style="shape=rhombus;perimeter=rhombusPerimeter;whiteSpace=wrap;html=1;align=center;strokeWidth=2;" parent="1" vertex="1">
          <mxGeometry x="-540" y="1200" width="120" height="60" as="geometry" />
        </mxCell>
        <mxCell id="RXSMDrH9linVr9BkSCTJ-24" value="&lt;b&gt;&lt;font style=&quot;font-size: 18px;&quot;&gt;Has&lt;/font&gt;&lt;/b&gt;" style="shape=rhombus;perimeter=rhombusPerimeter;whiteSpace=wrap;html=1;align=center;strokeWidth=2;" parent="1" vertex="1">
          <mxGeometry x="-290" y="1020" width="120" height="60" as="geometry" />
        </mxCell>
        <mxCell id="RXSMDrH9linVr9BkSCTJ-31" value="" style="shape=link;html=1;rounded=0;strokeWidth=2;exitX=1;exitY=0.5;exitDx=0;exitDy=0;entryX=0;entryY=0.5;entryDx=0;entryDy=0;" parent="1" source="RXSMDrH9linVr9BkSCTJ-6" target="RXSMDrH9linVr9BkSCTJ-14" edge="1">
          <mxGeometry relative="1" as="geometry">
            <mxPoint x="-535" y="489.29" as="sourcePoint" />
            <mxPoint x="-385" y="489.29" as="targetPoint" />
          </mxGeometry>
        </mxCell>
        <mxCell id="RXSMDrH9linVr9BkSCTJ-32" value="&lt;font style=&quot;font-size: 18px;&quot;&gt;&lt;b&gt;M&lt;/b&gt;&lt;/font&gt;" style="resizable=0;html=1;whiteSpace=wrap;align=left;verticalAlign=bottom;" parent="RXSMDrH9linVr9BkSCTJ-31" connectable="0" vertex="1">
          <mxGeometry x="-1" relative="1" as="geometry" />
        </mxCell>
        <mxCell id="RXSMDrH9linVr9BkSCTJ-33" value="&lt;font style=&quot;font-size: 18px;&quot;&gt;&lt;b&gt;N&lt;/b&gt;&lt;/font&gt;" style="resizable=0;html=1;whiteSpace=wrap;align=right;verticalAlign=bottom;" parent="RXSMDrH9linVr9BkSCTJ-31" connectable="0" vertex="1">
          <mxGeometry x="1" relative="1" as="geometry" />
        </mxCell>
        <mxCell id="RXSMDrH9linVr9BkSCTJ-34" value="" style="shape=link;html=1;rounded=0;exitX=1;exitY=0.5;exitDx=0;exitDy=0;entryX=0;entryY=0.5;entryDx=0;entryDy=0;strokeWidth=2;" parent="1" source="RXSMDrH9linVr9BkSCTJ-14" target="RXSMDrH9linVr9BkSCTJ-10" edge="1">
          <mxGeometry relative="1" as="geometry">
            <mxPoint x="-190" y="730" as="sourcePoint" />
            <mxPoint x="-30" y="730" as="targetPoint" />
          </mxGeometry>
        </mxCell>
        <mxCell id="RXSMDrH9linVr9BkSCTJ-35" value="&lt;font style=&quot;font-size: 18px;&quot;&gt;&lt;b&gt;1&lt;/b&gt;&lt;/font&gt;" style="resizable=0;html=1;whiteSpace=wrap;align=right;verticalAlign=bottom;" parent="RXSMDrH9linVr9BkSCTJ-34" connectable="0" vertex="1">
          <mxGeometry x="1" relative="1" as="geometry" />
        </mxCell>
        <mxCell id="RXSMDrH9linVr9BkSCTJ-36" value="" style="endArrow=none;html=1;rounded=0;entryX=0;entryY=0.5;entryDx=0;entryDy=0;exitX=0.5;exitY=1;exitDx=0;exitDy=0;strokeWidth=2;shape=link;" parent="1" source="RXSMDrH9linVr9BkSCTJ-6" target="RXSMDrH9linVr9BkSCTJ-19" edge="1">
          <mxGeometry relative="1" as="geometry">
            <mxPoint x="-630" y="540" as="sourcePoint" />
            <mxPoint x="-30" y="730" as="targetPoint" />
          </mxGeometry>
        </mxCell>
        <mxCell id="RXSMDrH9linVr9BkSCTJ-37" value="&lt;font style=&quot;font-size: 18px;&quot;&gt;&lt;b&gt;M&lt;/b&gt;&lt;/font&gt;" style="resizable=0;html=1;whiteSpace=wrap;align=left;verticalAlign=bottom;" parent="RXSMDrH9linVr9BkSCTJ-36" connectable="0" vertex="1">
          <mxGeometry x="-1" relative="1" as="geometry" />
        </mxCell>
        <mxCell id="RXSMDrH9linVr9BkSCTJ-38" value="&lt;font style=&quot;font-size: 18px;&quot;&gt;&lt;b&gt;N&lt;/b&gt;&lt;/font&gt;" style="resizable=0;html=1;whiteSpace=wrap;align=right;verticalAlign=bottom;" parent="RXSMDrH9linVr9BkSCTJ-36" connectable="0" vertex="1">
          <mxGeometry x="1" relative="1" as="geometry" />
        </mxCell>
        <mxCell id="RXSMDrH9linVr9BkSCTJ-41" value="" style="endArrow=none;html=1;rounded=0;strokeWidth=2;entryX=0.5;entryY=0;entryDx=0;entryDy=0;exitX=0.5;exitY=1;exitDx=0;exitDy=0;" parent="1" source="RXSMDrH9linVr9BkSCTJ-19" target="RXSMDrH9linVr9BkSCTJ-9" edge="1">
          <mxGeometry relative="1" as="geometry">
            <mxPoint x="-430" y="710" as="sourcePoint" />
            <mxPoint x="-30" y="730" as="targetPoint" />
          </mxGeometry>
        </mxCell>
        <mxCell id="RXSMDrH9linVr9BkSCTJ-42" value="1" style="resizable=0;html=1;whiteSpace=wrap;align=right;verticalAlign=bottom;" parent="RXSMDrH9linVr9BkSCTJ-41" connectable="0" vertex="1">
          <mxGeometry x="1" relative="1" as="geometry" />
        </mxCell>
        <mxCell id="RXSMDrH9linVr9BkSCTJ-43" value="" style="shape=link;html=1;rounded=0;strokeWidth=2;exitX=0;exitY=0.5;exitDx=0;exitDy=0;entryX=1;entryY=0.5;entryDx=0;entryDy=0;" parent="1" source="RXSMDrH9linVr9BkSCTJ-5" target="RXSMDrH9linVr9BkSCTJ-15" edge="1">
          <mxGeometry relative="1" as="geometry">
            <mxPoint x="130" y="580" as="sourcePoint" />
            <mxPoint x="350" y="580" as="targetPoint" />
          </mxGeometry>
        </mxCell>
        <mxCell id="RXSMDrH9linVr9BkSCTJ-44" value="&lt;font style=&quot;font-size: 18px;&quot;&gt;&lt;b&gt;M&lt;/b&gt;&lt;/font&gt;" style="resizable=0;html=1;whiteSpace=wrap;align=left;verticalAlign=bottom;" parent="RXSMDrH9linVr9BkSCTJ-43" connectable="0" vertex="1">
          <mxGeometry x="-1" relative="1" as="geometry" />
        </mxCell>
        <mxCell id="RXSMDrH9linVr9BkSCTJ-45" value="&lt;b&gt;&lt;font style=&quot;font-size: 18px;&quot;&gt;N&lt;/font&gt;&lt;/b&gt;" style="resizable=0;html=1;whiteSpace=wrap;align=right;verticalAlign=bottom;" parent="RXSMDrH9linVr9BkSCTJ-43" connectable="0" vertex="1">
          <mxGeometry x="1" relative="1" as="geometry" />
        </mxCell>
        <mxCell id="RXSMDrH9linVr9BkSCTJ-46" value="" style="shape=link;html=1;rounded=0;exitX=0;exitY=0.5;exitDx=0;exitDy=0;entryX=1;entryY=0.5;entryDx=0;entryDy=0;strokeWidth=2;" parent="1" source="RXSMDrH9linVr9BkSCTJ-15" target="RXSMDrH9linVr9BkSCTJ-10" edge="1">
          <mxGeometry relative="1" as="geometry">
            <mxPoint x="-20" y="680" as="sourcePoint" />
            <mxPoint x="140" y="680" as="targetPoint" />
          </mxGeometry>
        </mxCell>
        <mxCell id="RXSMDrH9linVr9BkSCTJ-47" value="&lt;font style=&quot;font-size: 18px;&quot;&gt;&lt;b&gt;1&lt;/b&gt;&lt;/font&gt;" style="resizable=0;html=1;whiteSpace=wrap;align=right;verticalAlign=bottom;" parent="RXSMDrH9linVr9BkSCTJ-46" connectable="0" vertex="1">
          <mxGeometry x="1" relative="1" as="geometry" />
        </mxCell>
        <mxCell id="RXSMDrH9linVr9BkSCTJ-48" value="" style="shape=link;html=1;rounded=0;exitX=0.5;exitY=0;exitDx=0;exitDy=0;entryX=0.5;entryY=1;entryDx=0;entryDy=0;strokeWidth=2;" parent="1" source="RXSMDrH9linVr9BkSCTJ-20" target="RXSMDrH9linVr9BkSCTJ-10" edge="1">
          <mxGeometry relative="1" as="geometry">
            <mxPoint x="340" y="500" as="sourcePoint" />
            <mxPoint x="120" y="500" as="targetPoint" />
          </mxGeometry>
        </mxCell>
        <mxCell id="RXSMDrH9linVr9BkSCTJ-49" value="&lt;font style=&quot;font-size: 18px;&quot;&gt;&lt;b&gt;1&lt;/b&gt;&lt;/font&gt;" style="resizable=0;html=1;whiteSpace=wrap;align=right;verticalAlign=bottom;" parent="RXSMDrH9linVr9BkSCTJ-48" connectable="0" vertex="1">
          <mxGeometry x="1" relative="1" as="geometry" />
        </mxCell>
        <mxCell id="RXSMDrH9linVr9BkSCTJ-50" value="" style="shape=link;html=1;rounded=0;strokeWidth=2;exitX=0.5;exitY=0;exitDx=0;exitDy=0;entryX=0.5;entryY=1;entryDx=0;entryDy=0;" parent="1" source="RXSMDrH9linVr9BkSCTJ-8" target="RXSMDrH9linVr9BkSCTJ-20" edge="1">
          <mxGeometry relative="1" as="geometry">
            <mxPoint x="600" y="500" as="sourcePoint" />
            <mxPoint x="460" y="500" as="targetPoint" />
          </mxGeometry>
        </mxCell>
        <mxCell id="RXSMDrH9linVr9BkSCTJ-51" value="&lt;font style=&quot;font-size: 18px;&quot;&gt;&lt;b&gt;M&lt;/b&gt;&lt;/font&gt;" style="resizable=0;html=1;whiteSpace=wrap;align=left;verticalAlign=bottom;" parent="RXSMDrH9linVr9BkSCTJ-50" connectable="0" vertex="1">
          <mxGeometry x="-1" relative="1" as="geometry" />
        </mxCell>
        <mxCell id="RXSMDrH9linVr9BkSCTJ-52" value="&lt;font style=&quot;font-size: 18px;&quot;&gt;&lt;b&gt;N&lt;/b&gt;&lt;/font&gt;" style="resizable=0;html=1;whiteSpace=wrap;align=right;verticalAlign=bottom;" parent="RXSMDrH9linVr9BkSCTJ-50" connectable="0" vertex="1">
          <mxGeometry x="1" relative="1" as="geometry" />
        </mxCell>
        <mxCell id="RXSMDrH9linVr9BkSCTJ-53" value="" style="endArrow=none;html=1;rounded=0;strokeWidth=2;entryX=1;entryY=0.5;entryDx=0;entryDy=0;exitX=0;exitY=0.5;exitDx=0;exitDy=0;" parent="1" source="RXSMDrH9linVr9BkSCTJ-18" target="RXSMDrH9linVr9BkSCTJ-9" edge="1">
          <mxGeometry relative="1" as="geometry">
            <mxPoint x="-430" y="720" as="sourcePoint" />
            <mxPoint x="-430" y="860" as="targetPoint" />
          </mxGeometry>
        </mxCell>
        <mxCell id="RXSMDrH9linVr9BkSCTJ-54" value="1" style="resizable=0;html=1;whiteSpace=wrap;align=right;verticalAlign=bottom;" parent="RXSMDrH9linVr9BkSCTJ-53" connectable="0" vertex="1">
          <mxGeometry x="1" relative="1" as="geometry" />
        </mxCell>
        <mxCell id="RXSMDrH9linVr9BkSCTJ-55" value="" style="endArrow=none;html=1;rounded=0;exitX=0;exitY=0.5;exitDx=0;exitDy=0;strokeWidth=2;shape=link;" parent="1" source="RXSMDrH9linVr9BkSCTJ-8" target="RXSMDrH9linVr9BkSCTJ-18" edge="1">
          <mxGeometry relative="1" as="geometry">
            <mxPoint x="-620" y="530" as="sourcePoint" />
            <mxPoint x="-490" y="690" as="targetPoint" />
          </mxGeometry>
        </mxCell>
        <mxCell id="RXSMDrH9linVr9BkSCTJ-56" value="&lt;font style=&quot;font-size: 18px;&quot;&gt;&lt;b&gt;M&lt;/b&gt;&lt;/font&gt;" style="resizable=0;html=1;whiteSpace=wrap;align=left;verticalAlign=bottom;" parent="RXSMDrH9linVr9BkSCTJ-55" connectable="0" vertex="1">
          <mxGeometry x="-1" relative="1" as="geometry" />
        </mxCell>
        <mxCell id="RXSMDrH9linVr9BkSCTJ-57" value="&lt;font style=&quot;font-size: 18px;&quot;&gt;&lt;b&gt;N&lt;/b&gt;&lt;/font&gt;" style="resizable=0;html=1;whiteSpace=wrap;align=right;verticalAlign=bottom;" parent="RXSMDrH9linVr9BkSCTJ-55" connectable="0" vertex="1">
          <mxGeometry x="1" relative="1" as="geometry" />
        </mxCell>
        <mxCell id="RXSMDrH9linVr9BkSCTJ-58" value="" style="shape=link;html=1;rounded=0;exitX=0.5;exitY=0;exitDx=0;exitDy=0;entryX=0.5;entryY=1;entryDx=0;entryDy=0;strokeWidth=2;" parent="1" source="RXSMDrH9linVr9BkSCTJ-22" target="RXSMDrH9linVr9BkSCTJ-6" edge="1">
          <mxGeometry relative="1" as="geometry">
            <mxPoint x="-425" y="540" as="sourcePoint" />
            <mxPoint x="-645" y="540" as="targetPoint" />
          </mxGeometry>
        </mxCell>
        <mxCell id="RXSMDrH9linVr9BkSCTJ-59" value="&lt;font style=&quot;font-size: 18px;&quot;&gt;&lt;b&gt;1&lt;/b&gt;&lt;/font&gt;" style="resizable=0;html=1;whiteSpace=wrap;align=right;verticalAlign=bottom;" parent="RXSMDrH9linVr9BkSCTJ-58" connectable="0" vertex="1">
          <mxGeometry x="1" relative="1" as="geometry" />
        </mxCell>
        <mxCell id="RXSMDrH9linVr9BkSCTJ-60" value="" style="shape=link;html=1;rounded=0;strokeWidth=2;exitX=0.5;exitY=0;exitDx=0;exitDy=0;entryX=0.5;entryY=1;entryDx=0;entryDy=0;" parent="1" source="RXSMDrH9linVr9BkSCTJ-3" target="RXSMDrH9linVr9BkSCTJ-22" edge="1">
          <mxGeometry relative="1" as="geometry">
            <mxPoint x="-150" y="770" as="sourcePoint" />
            <mxPoint x="-290" y="770" as="targetPoint" />
          </mxGeometry>
        </mxCell>
        <mxCell id="RXSMDrH9linVr9BkSCTJ-61" value="&lt;font style=&quot;font-size: 18px;&quot;&gt;&lt;b&gt;M&lt;/b&gt;&lt;/font&gt;" style="resizable=0;html=1;whiteSpace=wrap;align=left;verticalAlign=bottom;" parent="RXSMDrH9linVr9BkSCTJ-60" connectable="0" vertex="1">
          <mxGeometry x="-1" relative="1" as="geometry" />
        </mxCell>
        <mxCell id="RXSMDrH9linVr9BkSCTJ-62" value="&lt;font style=&quot;font-size: 18px;&quot;&gt;&lt;b&gt;N&lt;/b&gt;&lt;/font&gt;" style="resizable=0;html=1;whiteSpace=wrap;align=right;verticalAlign=bottom;" parent="RXSMDrH9linVr9BkSCTJ-60" connectable="0" vertex="1">
          <mxGeometry x="1" relative="1" as="geometry" />
        </mxCell>
        <mxCell id="RXSMDrH9linVr9BkSCTJ-63" value="" style="endArrow=none;html=1;rounded=0;entryX=0.5;entryY=1;entryDx=0;entryDy=0;exitX=0.5;exitY=0;exitDx=0;exitDy=0;strokeWidth=2;" parent="1" source="RXSMDrH9linVr9BkSCTJ-13" target="RXSMDrH9linVr9BkSCTJ-5" edge="1">
          <mxGeometry relative="1" as="geometry">
            <mxPoint x="150" y="750" as="sourcePoint" />
            <mxPoint x="310" y="750" as="targetPoint" />
          </mxGeometry>
        </mxCell>
        <mxCell id="RXSMDrH9linVr9BkSCTJ-64" value="&lt;font style=&quot;font-size: 18px;&quot;&gt;&lt;b&gt;1&lt;/b&gt;&lt;/font&gt;" style="resizable=0;html=1;whiteSpace=wrap;align=right;verticalAlign=bottom;" parent="RXSMDrH9linVr9BkSCTJ-63" connectable="0" vertex="1">
          <mxGeometry x="1" relative="1" as="geometry" />
        </mxCell>
        <mxCell id="RXSMDrH9linVr9BkSCTJ-70" value="" style="endArrow=none;html=1;rounded=0;entryX=0.5;entryY=0;entryDx=0;entryDy=0;strokeWidth=2;" parent="1" target="RXSMDrH9linVr9BkSCTJ-7" edge="1">
          <mxGeometry relative="1" as="geometry">
            <mxPoint x="650" y="710" as="sourcePoint" />
            <mxPoint x="310" y="750" as="targetPoint" />
          </mxGeometry>
        </mxCell>
        <mxCell id="RXSMDrH9linVr9BkSCTJ-71" value="&lt;font style=&quot;font-size: 18px;&quot;&gt;&lt;b&gt;M&lt;/b&gt;&lt;/font&gt;" style="resizable=0;html=1;whiteSpace=wrap;align=left;verticalAlign=bottom;" parent="RXSMDrH9linVr9BkSCTJ-70" connectable="0" vertex="1">
          <mxGeometry x="-1" relative="1" as="geometry" />
        </mxCell>
        <mxCell id="RXSMDrH9linVr9BkSCTJ-72" value="&lt;font style=&quot;font-size: 18px;&quot;&gt;&lt;b&gt;N&lt;/b&gt;&lt;/font&gt;" style="resizable=0;html=1;whiteSpace=wrap;align=right;verticalAlign=bottom;" parent="RXSMDrH9linVr9BkSCTJ-70" connectable="0" vertex="1">
          <mxGeometry x="1" relative="1" as="geometry" />
        </mxCell>
        <mxCell id="RXSMDrH9linVr9BkSCTJ-75" value="" style="endArrow=none;html=1;rounded=0;entryX=0;entryY=0.5;entryDx=0;entryDy=0;strokeWidth=2;" parent="1" source="RXSMDrH9linVr9BkSCTJ-16" target="RXSMDrH9linVr9BkSCTJ-7" edge="1">
          <mxGeometry relative="1" as="geometry">
            <mxPoint x="150" y="750" as="sourcePoint" />
            <mxPoint x="310" y="750" as="targetPoint" />
          </mxGeometry>
        </mxCell>
        <mxCell id="RXSMDrH9linVr9BkSCTJ-76" value="&lt;font style=&quot;font-size: 18px;&quot;&gt;&lt;b&gt;1&lt;/b&gt;&lt;/font&gt;" style="resizable=0;html=1;whiteSpace=wrap;align=right;verticalAlign=bottom;" parent="RXSMDrH9linVr9BkSCTJ-75" connectable="0" vertex="1">
          <mxGeometry x="1" relative="1" as="geometry" />
        </mxCell>
        <mxCell id="RXSMDrH9linVr9BkSCTJ-77" value="" style="endArrow=none;html=1;rounded=0;exitX=1;exitY=0.5;exitDx=0;exitDy=0;strokeWidth=2;" parent="1" source="RXSMDrH9linVr9BkSCTJ-8" target="RXSMDrH9linVr9BkSCTJ-16" edge="1">
          <mxGeometry relative="1" as="geometry">
            <mxPoint x="150" y="750" as="sourcePoint" />
            <mxPoint x="310" y="750" as="targetPoint" />
          </mxGeometry>
        </mxCell>
        <mxCell id="RXSMDrH9linVr9BkSCTJ-78" value="&lt;font style=&quot;font-size: 18px;&quot;&gt;&lt;b&gt;M&lt;/b&gt;&lt;/font&gt;" style="resizable=0;html=1;whiteSpace=wrap;align=left;verticalAlign=bottom;" parent="RXSMDrH9linVr9BkSCTJ-77" connectable="0" vertex="1">
          <mxGeometry x="-1" relative="1" as="geometry" />
        </mxCell>
        <mxCell id="RXSMDrH9linVr9BkSCTJ-79" value="&lt;font style=&quot;font-size: 18px;&quot;&gt;&lt;b&gt;N&lt;/b&gt;&lt;/font&gt;" style="resizable=0;html=1;whiteSpace=wrap;align=right;verticalAlign=bottom;" parent="RXSMDrH9linVr9BkSCTJ-77" connectable="0" vertex="1">
          <mxGeometry x="1" relative="1" as="geometry" />
        </mxCell>
        <mxCell id="RXSMDrH9linVr9BkSCTJ-80" value="" style="shape=link;html=1;rounded=0;entryX=0.396;entryY=1.1;entryDx=0;entryDy=0;exitX=0.5;exitY=0;exitDx=0;exitDy=0;strokeWidth=2;entryPerimeter=0;" parent="1" source="RXSMDrH9linVr9BkSCTJ-21" target="RXSMDrH9linVr9BkSCTJ-8" edge="1">
          <mxGeometry relative="1" as="geometry">
            <mxPoint x="-90" y="890" as="sourcePoint" />
            <mxPoint x="70" y="890" as="targetPoint" />
          </mxGeometry>
        </mxCell>
        <mxCell id="RXSMDrH9linVr9BkSCTJ-81" value="&lt;font style=&quot;font-size: 18px;&quot;&gt;&lt;b&gt;1&lt;/b&gt;&lt;/font&gt;" style="resizable=0;html=1;whiteSpace=wrap;align=right;verticalAlign=bottom;" parent="RXSMDrH9linVr9BkSCTJ-80" connectable="0" vertex="1">
          <mxGeometry x="1" relative="1" as="geometry" />
        </mxCell>
        <mxCell id="RXSMDrH9linVr9BkSCTJ-82" value="" style="shape=link;html=1;rounded=0;exitX=0.373;exitY=0.029;exitDx=0;exitDy=0;entryX=0.5;entryY=1;entryDx=0;entryDy=0;strokeWidth=2;exitPerimeter=0;" parent="1" source="RXSMDrH9linVr9BkSCTJ-4" target="RXSMDrH9linVr9BkSCTJ-21" edge="1">
          <mxGeometry relative="1" as="geometry">
            <mxPoint x="-90" y="890" as="sourcePoint" />
            <mxPoint x="70" y="890" as="targetPoint" />
          </mxGeometry>
        </mxCell>
        <mxCell id="RXSMDrH9linVr9BkSCTJ-83" value="&lt;font style=&quot;font-size: 18px;&quot;&gt;&lt;b&gt;M&lt;/b&gt;&lt;/font&gt;" style="resizable=0;html=1;whiteSpace=wrap;align=left;verticalAlign=bottom;" parent="RXSMDrH9linVr9BkSCTJ-82" connectable="0" vertex="1">
          <mxGeometry x="-1" relative="1" as="geometry" />
        </mxCell>
        <mxCell id="RXSMDrH9linVr9BkSCTJ-84" value="&lt;font style=&quot;font-size: 18px;&quot;&gt;&lt;b&gt;N&lt;/b&gt;&lt;/font&gt;" style="resizable=0;html=1;whiteSpace=wrap;align=right;verticalAlign=bottom;" parent="RXSMDrH9linVr9BkSCTJ-82" connectable="0" vertex="1">
          <mxGeometry x="1" relative="1" as="geometry" />
        </mxCell>
        <mxCell id="RXSMDrH9linVr9BkSCTJ-85" value="" style="endArrow=none;html=1;rounded=0;entryX=0;entryY=0.5;entryDx=0;entryDy=0;exitX=1;exitY=0.5;exitDx=0;exitDy=0;strokeWidth=2;" parent="1" source="RXSMDrH9linVr9BkSCTJ-23" target="RXSMDrH9linVr9BkSCTJ-4" edge="1">
          <mxGeometry relative="1" as="geometry">
            <mxPoint x="-90" y="890" as="sourcePoint" />
            <mxPoint x="290" y="1200" as="targetPoint" />
          </mxGeometry>
        </mxCell>
        <mxCell id="RXSMDrH9linVr9BkSCTJ-86" value="&lt;font style=&quot;font-size: 18px;&quot;&gt;&lt;b&gt;1&lt;/b&gt;&lt;/font&gt;" style="resizable=0;html=1;whiteSpace=wrap;align=right;verticalAlign=bottom;" parent="RXSMDrH9linVr9BkSCTJ-85" connectable="0" vertex="1">
          <mxGeometry x="1" relative="1" as="geometry" />
        </mxCell>
        <mxCell id="RXSMDrH9linVr9BkSCTJ-90" value="" style="endArrow=none;html=1;rounded=0;entryX=1;entryY=0.75;entryDx=0;entryDy=0;exitX=0;exitY=0.5;exitDx=0;exitDy=0;strokeWidth=2;" parent="1" source="RXSMDrH9linVr9BkSCTJ-23" target="RXSMDrH9linVr9BkSCTJ-3" edge="1">
          <mxGeometry relative="1" as="geometry">
            <mxPoint x="-90" y="890" as="sourcePoint" />
            <mxPoint x="70" y="890" as="targetPoint" />
          </mxGeometry>
        </mxCell>
        <mxCell id="RXSMDrH9linVr9BkSCTJ-91" value="&lt;font style=&quot;font-size: 18px;&quot;&gt;&lt;b&gt;N&lt;/b&gt;&lt;/font&gt;" style="resizable=0;html=1;whiteSpace=wrap;align=right;verticalAlign=bottom;" parent="RXSMDrH9linVr9BkSCTJ-90" connectable="0" vertex="1">
          <mxGeometry x="1" relative="1" as="geometry" />
        </mxCell>
        <mxCell id="RXSMDrH9linVr9BkSCTJ-92" value="" style="endArrow=none;html=1;rounded=0;entryX=1;entryY=0.25;entryDx=0;entryDy=0;exitX=0;exitY=0.5;exitDx=0;exitDy=0;strokeWidth=2;" parent="1" source="RXSMDrH9linVr9BkSCTJ-24" target="RXSMDrH9linVr9BkSCTJ-3" edge="1">
          <mxGeometry relative="1" as="geometry">
            <mxPoint x="-260" y="1180" as="sourcePoint" />
            <mxPoint x="-560" y="1085" as="targetPoint" />
          </mxGeometry>
        </mxCell>
        <mxCell id="RXSMDrH9linVr9BkSCTJ-93" value="&lt;font style=&quot;font-size: 18px;&quot;&gt;&lt;b&gt;N&lt;/b&gt;&lt;/font&gt;" style="resizable=0;html=1;whiteSpace=wrap;align=right;verticalAlign=bottom;" parent="RXSMDrH9linVr9BkSCTJ-92" connectable="0" vertex="1">
          <mxGeometry x="1" relative="1" as="geometry" />
        </mxCell>
        <mxCell id="RXSMDrH9linVr9BkSCTJ-96" value="" style="endArrow=none;html=1;rounded=0;entryX=0;entryY=0.75;entryDx=0;entryDy=0;exitX=1;exitY=0;exitDx=0;exitDy=0;strokeWidth=2;" parent="1" source="RXSMDrH9linVr9BkSCTJ-24" target="RXSMDrH9linVr9BkSCTJ-8" edge="1">
          <mxGeometry relative="1" as="geometry">
            <mxPoint x="-140" y="1180" as="sourcePoint" />
            <mxPoint x="240" y="1180" as="targetPoint" />
          </mxGeometry>
        </mxCell>
        <mxCell id="RXSMDrH9linVr9BkSCTJ-97" value="&lt;font style=&quot;font-size: 18px;&quot;&gt;&lt;b&gt;1&lt;/b&gt;&lt;/font&gt;" style="resizable=0;html=1;whiteSpace=wrap;align=right;verticalAlign=bottom;" parent="RXSMDrH9linVr9BkSCTJ-96" connectable="0" vertex="1">
          <mxGeometry x="1" relative="1" as="geometry" />
        </mxCell>
        <mxCell id="RXSMDrH9linVr9BkSCTJ-98" value="" style="endArrow=none;html=1;rounded=0;exitX=0;exitY=0.5;exitDx=0;exitDy=0;strokeWidth=2;" parent="1" source="RXSMDrH9linVr9BkSCTJ-1" target="RXSMDrH9linVr9BkSCTJ-12" edge="1">
          <mxGeometry relative="1" as="geometry">
            <mxPoint x="-90" y="1060" as="sourcePoint" />
            <mxPoint x="70" y="1060" as="targetPoint" />
          </mxGeometry>
        </mxCell>
        <mxCell id="RXSMDrH9linVr9BkSCTJ-99" value="" style="endArrow=none;html=1;rounded=0;strokeWidth=2;entryX=1;entryY=0.5;entryDx=0;entryDy=0;exitX=0;exitY=0.5;exitDx=0;exitDy=0;" parent="1" source="RXSMDrH9linVr9BkSCTJ-12" target="RXSMDrH9linVr9BkSCTJ-2" edge="1">
          <mxGeometry relative="1" as="geometry">
            <mxPoint x="-240" y="1470" as="sourcePoint" />
            <mxPoint x="-110" y="1480" as="targetPoint" />
          </mxGeometry>
        </mxCell>
        <mxCell id="RXSMDrH9linVr9BkSCTJ-100" value="&lt;b&gt;&lt;font style=&quot;font-size: 18px;&quot;&gt;Has&lt;/font&gt;&lt;/b&gt;" style="shape=rhombus;perimeter=rhombusPerimeter;whiteSpace=wrap;html=1;align=center;strokeWidth=2;" parent="1" vertex="1">
          <mxGeometry y="1330" width="120" height="60" as="geometry" />
        </mxCell>
        <mxCell id="RXSMDrH9linVr9BkSCTJ-106" value="" style="endArrow=none;html=1;rounded=0;entryX=0.5;entryY=1;entryDx=0;entryDy=0;exitX=0.5;exitY=0;exitDx=0;exitDy=0;strokeWidth=2;" parent="1" source="RXSMDrH9linVr9BkSCTJ-100" target="RXSMDrH9linVr9BkSCTJ-4" edge="1">
          <mxGeometry relative="1" as="geometry">
            <mxPoint x="-120" y="1090" as="sourcePoint" />
            <mxPoint x="40" y="1090" as="targetPoint" />
          </mxGeometry>
        </mxCell>
        <mxCell id="RXSMDrH9linVr9BkSCTJ-107" value="" style="endArrow=none;html=1;rounded=0;entryX=0.5;entryY=1;entryDx=0;entryDy=0;exitX=0.672;exitY=-0.053;exitDx=0;exitDy=0;exitPerimeter=0;strokeWidth=2;" parent="1" source="RXSMDrH9linVr9BkSCTJ-1" target="RXSMDrH9linVr9BkSCTJ-100" edge="1">
          <mxGeometry relative="1" as="geometry">
            <mxPoint x="-120" y="1090" as="sourcePoint" />
            <mxPoint x="40" y="1090" as="targetPoint" />
          </mxGeometry>
        </mxCell>
        <mxCell id="RXSMDrH9linVr9BkSCTJ-108" value="&lt;font style=&quot;font-size: 18px;&quot;&gt;&lt;b&gt;M&lt;/b&gt;&lt;/font&gt;" style="resizable=0;html=1;whiteSpace=wrap;align=left;verticalAlign=bottom;" parent="RXSMDrH9linVr9BkSCTJ-107" connectable="0" vertex="1">
          <mxGeometry x="-1" relative="1" as="geometry" />
        </mxCell>
        <mxCell id="RXSMDrH9linVr9BkSCTJ-109" value="&lt;font style=&quot;font-size: 18px;&quot;&gt;&lt;b&gt;N&lt;/b&gt;&lt;/font&gt;" style="resizable=0;html=1;whiteSpace=wrap;align=right;verticalAlign=bottom;" parent="RXSMDrH9linVr9BkSCTJ-107" connectable="0" vertex="1">
          <mxGeometry x="1" relative="1" as="geometry" />
        </mxCell>
      </root>
    </mxGraphModel>
  </diagram>
</mxfile>
